# xmcd CD database file generated by OrangeCD 5.2
#
# Track frame offsets:
#	150
#	18261
#	35093
#	53192
#	68346
#	89089
#	114861
#	128774
#	145387
#	162995
#	180155
#	198802
#	216886
#	231788
#	245405
#	262463
#	279567
#
# Disc length: 3943 seconds
#
# Revision: 0
# Processed by: cddbd v1.5.2PL0 Copyright (c) Steve Scherf et al.
# Submitted via: OrangeCD 5.2
#
DISCID=f20f6511
DTITLE=Various Artist - Totally Country Volume 3
DYEAR=1900
DGENRE=Country
TTITLE0=Tim McGraw - Unbroken
TTITLE1=Faith Hill - Cry
TTITLE2=Montgomery Gentry - Speed
TTITLE3=Randy Travis - Three wooden crosses
TTITLE4=Martina McBride - Blessed
TTITLE5=Dixie Chicks - Travelin' soldier
TTITLE6=Rascal Flatts - Love you out loud
TTITLE7=Diamond Rio - Beautiful mess
TTITLE8=Blake Shelton - The baby
TTITLE9=Jo Dee Messina - Was that my life
TTITLE10=Lonestar - Not a day goes by
TTITLE11=Kellie Coffey - When you lie next to me
TTITLE12=Phil Vassar - American child
TTITLE13=Trick Pony - On a mission
TTITLE14=Dusty Drake - One last time
TTITLE15=Travis Tritt - Strong enough to be your man
TTITLE16=Le Ann Rimes - Life goes on
EXTD=
EXTT0=
EXTT1=
EXTT2=
EXTT3=
EXTT4=
EXTT5=
EXTT6=
EXTT7=
EXTT8=
EXTT9=
EXTT10=
EXTT11=
EXTT12=
EXTT13=
EXTT14=
EXTT15=
EXTT16=
PLAYORDER=
